<?xml version="1.0" encoding="UTF-8" standalone="no"?>
<!-- Created with Inkscape (http://www.inkscape.org/) -->

<svg
   xmlns:dc="http://purl.org/dc/elements/1.1/"
   xmlns:cc="http://creativecommons.org/ns#"
   xmlns:rdf="http://www.w3.org/1999/02/22-rdf-syntax-ns#"
   xmlns:svg="http://www.w3.org/2000/svg"
   xmlns="http://www.w3.org/2000/svg"
   version="1.1"
   width="180"
   height="180"
   id="svg2"
   xml:space="preserve"><metadata
     id="metadata8"><rdf:RDF><cc:Work
         rdf:about=""><dc:format>image/svg+xml</dc:format><dc:type
           rdf:resource="http://purl.org/dc/dcmitype/StillImage" /><dc:title></dc:title></cc:Work></rdf:RDF></metadata><defs
     id="defs6"><clipPath
       id="clipPath16"><path
         d="M 0,144 144,144 144,0 0,0 0,144 z"
         id="path18" /></clipPath></defs><g
     transform="matrix(1.25,0,0,-1.25,0,180)"
     id="g10"><g
       id="g12"><g
         transform="translate(132.852,72)"
         id="g20"><path
           d="m 90,13.9375 c -42.01125,0 -76.0625,34.05125 -76.0625,76.0625 0,42.01125 34.05125,76.0625 76.0625,76.0625 42.01125,0 76.0625,-34.05125 76.0625,-76.0625 0,-42.01125 -34.05125,-76.0625 -76.0625,-76.0625 z m 0,9.09375 c 36.98625,0 66.96875,29.98375 66.96875,66.96875 0,36.985 -29.9825,66.96875 -66.96875,66.96875 C 53.015,156.96875 23.03125,126.985 23.03125,90 23.03125,53.015 53.015,23.03125 90,23.03125 z"
           transform="matrix(0.8,0,0,-0.8,-132.852,72)"
           id="path22"
           style="fill:#176fc1;fill-opacity:1;fill-rule:nonzero;stroke:none" /></g><g
         transform="translate(125.5728,72)"
         id="g24" /><g
         transform="translate(121.5219,72)"
         id="g28"><path
           d="m 90,28.09375 c -34.18875,0 -61.90625,27.7175 -61.90625,61.90625 0,34.18875 27.7175,61.90625 61.90625,61.90625 34.18875,0 61.90625,-27.7175 61.90625,-61.90625 0,-34.18875 -27.7175,-61.90625 -61.90625,-61.90625 z M 47.40625,62 104.3125,62 c 16.46625,0 28.28125,7.26125 28.28125,27.625 0,20.45 -12.32625,30.875 -28.5625,30.875 l -19.5,0 -2.96875,-4.6875 c 21.09125,-0.3275 23.93875,-0.45875 26.21875,-0.84375 8.34625,-1.38375 15.53125,-6.68375 15.53125,-23.875 0,-17.025 -8.11,-22.4175 -16.375,-23.71875 -2.82875,-0.44125 -6.5375,-0.49875 -56,0.15625 L 47.40625,62 z"
           transform="matrix(0.8,0,0,-0.8,-121.5219,72)"
           id="path30"
           style="fill:#176fc1;fill-opacity:1;fill-rule:nonzero;stroke:none" /></g><g
         transform="translate(83.4581,94.397)"
         id="g32" /></g></g></svg>